<mxfile host="app.diagrams.net" modified="2023-09-01T07:50:36.914Z" agent="Mozilla/5.0 (Macintosh; Intel Mac OS X 10_15_7) AppleWebKit/537.36 (KHTML, like Gecko) Chrome/116.0.0.0 Safari/537.36" version="21.7.1" etag="uojcho2fCYVp_XP-hcP2" type="github">
  <diagram name="페이지-1" id="eBKIrVUgwWBjARxB0PLj">
    <mxGraphModel>
      <root>
        <mxCell id="0" />
        <mxCell id="1" parent="0" />
      </root>
    </mxGraphModel>
  </diagram>
</mxfile>
